<svg width="37" height="33" fill="none" xmlns="http://www.w3.org/2000/svg"><path d="M35.48 6.008H6.55l-.43-4.662C6.05.584 5.393 0 4.607 0H1.52C.68 0 0 .662 0 1.479c0 .816.68 1.478 1.52 1.478h1.698l1.747 18.947c.124 1.366.883 2.848 2.189 3.855C4.799 28.686 6.95 33 10.78 33c3.18 0 5.423-3.086 4.332-6.009h8.317C22.34 29.911 24.578 33 27.762 33c2.54 0 4.606-2.011 4.606-4.483 0-2.472-2.066-4.483-4.606-4.483h-16.97a2.825 2.825 0 01-2.595-1.665l24.285-1.389a1.51 1.51 0 001.385-1.117l3.087-12.017c.24-.932-.486-1.838-1.474-1.838zm-24.7 24.035c-.864 0-1.567-.685-1.567-1.526s.703-1.526 1.567-1.526c.865 0 1.568.685 1.568 1.526s-.703 1.526-1.568 1.526zm16.98 0c-.864 0-1.567-.685-1.567-1.526s.703-1.526 1.568-1.526c.864 0 1.567.685 1.567 1.526s-.703 1.526-1.567 1.526zm3.428-11.951l-23.4 1.338-.966-10.464h26.71l-2.344 9.126z" fill="#565CC9"/></svg>