<svg xmlns="http://www.w3.org/2000/svg" viewBox="0 0 768 768"><path d="M768 384.7C768 172.6 596.1.7 384 .7S0 172.6 0 384.7C0 576.3 140.4 735.2 324 764V495.7h-97.5v-111H324v-84.6c0-96.2 57.3-149.4 145-149.4 42 0 86 7.5 86 7.5v94.5h-48.4c-47.7 0-62.6 29.6-62.6 60v72h106.5l-17 111H444V764c183.6-28.8 324-187.7 324-379.3z"/><path d="M533.5 495.7l17-111H444v-72c0-30.4 14.9-60 62.6-60H555v-94.5s-43.9-7.5-86-7.5c-87.7 0-145 53.2-145 149.4v84.6h-97.5v111H324V764c19.6 3.1 39.6 4.7 60 4.7s40.4-1.6 60-4.7V495.7h89.5z" fill="#fff"/></svg>