<svg width="260" height="59" fill="none" xmlns="http://www.w3.org/2000/svg"><path d="M39.596 20.947H26.453v-5.868H51.96l-1.14 5.867H46.2v22.94h-6.543v-22.94h-.06zm29.468 0H55.92v-5.868h25.506l-1.14 5.867h-4.622v22.94h-6.541v-22.94h-.06zm21.785 0h-4.561v-5.868h11.163v28.806h-6.602V20.947zm17.345-.119c-1.921-.296-3.481-.593-4.562-1.008l1.201-5.63 2.88.533c1.381.237 2.881.296 4.862.296 1.98 0 5.821-.237 8.942-.237 3.121 0 6.541.77 7.982 2.49 1.62 2.015 2.16 5.334 2.16 13.04 0 7.705-.18 9.246-.6 13.573h-13.203l.48-5.809h6.842V31.32c0-9.069-.78-10.61-5.402-10.61-4.621 0-3.841.119-5.221.119l-2.761 23.176h-6.841l3.241-23.176zm28.507 23.116l.66-5.75h5.041c-.12-1.244-.18-2.548-.18-4.267 0-3.497.3-7.113.9-10.076h5.462a61.21 61.21 0 00-.3 5.927c0 2.015.18 5.75.3 8.002 0 1.719-.36 4.09-.541 6.105-2.52.119-4.261.178-6.181.178h-5.041l-.12-.119zm23.646-10.55c0-2.312 0-4.446-.121-6.402-.12-4.682-.9-6.046-5.281-6.046h-16.384v-5.868h18.005c6.841 0 10.022 3.26 10.142 10.433 0 2.193.12 4.8.12 7.35 0 4.208 0 8.357-.18 11.024h-6.482c0-2.845.121-6.816.121-10.491h.06zm16.744-12.566c-1.921-.296-3.481-.593-4.561-1.008l1.2-5.63 2.881.533c1.38.237 2.88.296 4.861.296 1.98 0 5.821-.237 8.942-.237 3.121 0 6.542.77 7.982 2.49 1.62 2.015 2.161 5.334 2.161 13.04 0 7.705-.18 9.246-.601 13.573h-13.203l.48-5.809h6.842V31.32c0-9.069-.78-10.61-5.401-10.61-4.622 0-3.841.119-5.222.119l-2.76 23.176h-6.842l3.241-23.176zm50.112 13.514v-7.35c-.12-4.8-1.26-6.046-5.401-6.046h-13.924v-5.868h15.964c6.842 0 9.723 3.142 9.903 10.195v18.612h-6.602v-9.602h.06v.06zm-19.025-5.216l6.602-.948v15.766h-6.602V29.126z" fill="#fff"/></svg>