<svg width="175" height="31" fill="none" xmlns="http://www.w3.org/2000/svg"><path d="M157.953 0l5.018 10.204 11.22 1.637-8.119 7.943L167.988 31l-10.035-5.295L147.917 31l1.917-11.216-8.119-7.943 11.22-1.637L157.953 0zm-35.429 0l5.017 10.204 11.22 1.637-8.119 7.943L132.559 31l-10.035-5.295L112.488 31l1.916-11.216-8.119-7.943 11.221-1.637L122.524 0zM16.238 0l5.018 10.204 11.22 1.637-8.119 7.943L26.274 31l-10.036-5.295L6.203 31l1.916-11.216L0 11.84l11.22-1.637L16.238 0zm70.858 0l5.017 10.204 11.221 1.637-8.12 7.943L97.131 31l-10.035-5.295L77.06 31l1.917-11.216-8.12-7.943 11.22-1.637L87.097 0zm-35.43 0l5.017 10.204 11.22 1.637-8.118 7.943L61.7 31l-10.035-5.295L41.63 31l1.917-11.216-8.12-7.943 11.221-1.637L51.666 0z" fill="#FFA81B"/></svg>