<svg id="artwork" xmlns="http://www.w3.org/2000/svg" viewBox="0 0 179.5 60">
    <style>.st1{fill:#fff}</style>
    <path d="M165.2 0H11.3c-1 0-2 .1-3 .3-1 .2-1.9.5-2.9.9C4.5 1.7 3.7 2.3 3 3S1.7 4.5 1.2 5.4C.8 6.3.5 7.3.3 8.3c-.2 1-.2 2-.3 3v37.4c0 1 .1 2 .3 3 .2 1 .5 1.9.9 2.9.5.9 1 1.7 1.8 2.4.7.7 1.5 1.3 2.4 1.8.9.5 1.8.8 2.9.9 1 .2 2 .2 3 .3h156.9c1 0 2-.1 3-.3 1-.2 1.9-.5 2.9-.9.9-.5 1.7-1.1 2.4-1.8s1.3-1.5 1.8-2.4c.5-.9.8-1.9.9-2.9.2-1 .2-2 .3-3V11.3c0-1-.1-2-.3-3-.2-1-.5-1.9-.9-2.9-.5-.9-1.1-1.7-1.8-2.4s-1.5-1.3-2.4-1.8c-.9-.5-1.9-.8-2.9-.9-1-.2-2-.2-3-.3h-3z"
          fill="#b6b6b6"/>
    <path d="M12.7 58.7h-1.4c-.8 0-1.8-.1-2.8-.2-.9-.2-1.7-.5-2.5-.9s-1.5-.9-2.1-1.5c-.6-.6-1.1-1.3-1.5-2.1-.4-.8-.7-1.6-.8-2.5-.2-1-.2-2-.2-2.8V11.4c0-.8.1-1.8.2-2.8.1-1 .4-1.8.8-2.6s.9-1.5 1.5-2.1c.6-.6 1.3-1.1 2.1-1.5.8-.4 1.6-.7 2.5-.8 1-.2 2-.2 2.8-.2h157c.8 0 1.8.1 2.8.2.9.2 1.7.4 2.5.8s1.5.9 2.1 1.5c.6.6 1.1 1.3 1.5 2.1.4.8.7 1.6.8 2.5.2.9.2 1.9.3 2.8v37.3c0 .9-.1 1.9-.3 2.8-.2.9-.4 1.7-.8 2.5s-.9 1.5-1.5 2.1c-.6.6-1.3 1.1-2.1 1.5-.8.4-1.6.7-2.5.8-1 .2-2 .2-2.8.2h-2.9l-152.7.2z"/>
    <g id="XMLID_20_">
        <g id="XMLID_22_">
            <g id="XMLID_23_">
                <path id="XMLID_25_" class="st1"
                      d="M37.2 30.5c0-4.1 3.4-6.1 3.5-6.2-1.9-2.8-4.9-3.2-6-3.2-2.5-.3-5 1.5-6.2 1.5-1.3 0-3.3-1.5-5.4-1.4-2.7 0-5.3 1.6-6.7 4.1-2.9 5-.7 12.4 2 16.5 1.4 2 3 4.2 5.1 4.1 2.1-.1 2.9-1.3 5.4-1.3 2.5 0 3.2 1.3 5.4 1.3s3.6-2 5-4c1.6-2.3 2.3-4.5 2.3-4.6-.1-.3-4.4-1.9-4.4-6.8z"/>
                <path id="XMLID_24_" class="st1"
                      d="M33.1 18.3c1.1-1.4 1.9-3.3 1.7-5.2-1.6.1-3.6 1.1-4.8 2.5-1 1.2-2 3.2-1.7 5 1.7.1 3.6-.9 4.8-2.3z"/>
            </g>
        </g>
        <path class="st1"
              d="M63.5 40.7h-7.1l-1.7 5h-3l6.7-18.6h3.1l6.7 18.6h-3.1l-1.6-5zm-6.4-2.3h5.6l-2.8-8.2h-.1l-2.7 8.2zm25.6.6c0 4.2-2.3 6.9-5.7 6.9-1.9 0-3.5-.9-4.3-2.4h-.1v6.7h-2.8v-18h2.7v2.3h.1C73.5 33 75.1 32 77 32c3.5 0 5.7 2.7 5.7 7zm-2.8 0c0-2.7-1.4-4.6-3.6-4.6-2.1 0-3.6 1.8-3.6 4.6 0 2.7 1.4 4.6 3.6 4.6 2.2-.1 3.6-1.9 3.6-4.6zm17.8 0c0 4.2-2.3 6.9-5.7 6.9-1.9 0-3.5-.9-4.3-2.4h-.1v6.7h-2.8v-18h2.7v2.3h.1C88.4 33 90.1 32 92 32c3.4 0 5.7 2.7 5.7 7zm-2.9 0c0-2.7-1.4-4.6-3.6-4.6-2.1 0-3.6 1.8-3.6 4.6 0 2.7 1.4 4.6 3.6 4.6 2.2-.1 3.6-1.9 3.6-4.6zm12.8 1.6c.2 1.8 2 3.1 4.5 3.1 2.3 0 4-1.2 4-2.9 0-1.4-1-2.3-3.4-2.9l-2.4-.6c-3.4-.8-5-2.4-5-5 0-3.2 2.8-5.4 6.8-5.4 3.9 0 6.6 2.2 6.7 5.4H116c-.2-1.9-1.7-3-4-3s-3.8 1.1-3.8 2.8c0 1.3 1 2.1 3.4 2.7l2.1.5c3.8.9 5.4 2.4 5.4 5.2 0 3.5-2.8 5.7-7.2 5.7-4.1 0-6.9-2.1-7.1-5.5h2.8zM125 28.9v3.2h2.6v2.2H125v7.5c0 1.2.5 1.7 1.7 1.7.3 0 .7 0 .9-.1v2.2c-.3.1-.9.1-1.5.1-2.7 0-3.8-1-3.8-3.7v-7.8h-2V32h2v-3.2h2.7zm4.1 10.1c0-4.3 2.5-7 6.4-7 3.9 0 6.4 2.7 6.4 7s-2.5 7-6.4 7c-3.9-.1-6.4-2.8-6.4-7zm10 0c0-2.9-1.3-4.7-3.6-4.7s-3.6 1.7-3.6 4.7c0 2.9 1.3 4.7 3.6 4.7s3.6-1.8 3.6-4.7zm5.2-6.8h2.7v2.3h.1c.4-1.5 1.7-2.5 3.3-2.5.4 0 .7.1 1 .1v2.6c-.2-.1-.7-.2-1.3-.2-1.8 0-2.9 1.2-2.9 3.1v8.1h-2.8V32.2zm19.8 9.6c-.4 2.5-2.8 4.2-5.8 4.2-4 0-6.4-2.6-6.4-6.9 0-4.3 2.5-7 6.3-7s6.1 2.6 6.1 6.7v1h-9.6v.2c0 2.3 1.5 3.8 3.7 3.8 1.5 0 2.8-.7 3.1-1.9h2.6zm-9.4-4.1h6.8c-.1-2.1-1.4-3.4-3.3-3.4-2 0-3.4 1.3-3.5 3.4z"/>
    </g>
    <path class="st1"
          d="M56.7 13.1c2.7 0 4.2 1.6 4.2 4.4 0 2.9-1.5 4.5-4.2 4.5h-3.2v-9h3.2zm-1.8 7.7h1.7c1.9 0 3-1.2 3-3.2s-1.1-3.2-3-3.2h-1.7v6.4zm7.6-2.1c0-2.2 1.2-3.5 3.2-3.5s3.2 1.3 3.2 3.5-1.2 3.5-3.2 3.5-3.2-1.3-3.2-3.5zm5 0c0-1.5-.7-2.3-1.8-2.3-1.2 0-1.8.9-1.8 2.3 0 1.5.7 2.3 1.8 2.3 1.2 0 1.8-.9 1.8-2.3zm9.9 3.3H76l-1.4-5h-.1l-1.4 5h-1.4l-1.9-6.8h1.4l1.2 5.2h.1l1.4-5.2h1.3l1.4 5.2h.1l1.2-5.2h1.3L77.4 22zm3.4-6.7h1.3v1.1h.1c.3-.8 1-1.2 2-1.2 1.5 0 2.3.9 2.3 2.5V22h-1.3v-4c0-1.1-.5-1.6-1.5-1.6s-1.6.7-1.6 1.7v4h-1.3v-6.8zm7.8-2.6H90V22h-1.3v-9.3zm3.2 6c0-2.2 1.2-3.5 3.2-3.5s3.2 1.3 3.2 3.5-1.2 3.5-3.2 3.5-3.2-1.3-3.2-3.5zm5 0c0-1.5-.7-2.3-1.8-2.3-1.2 0-1.8.9-1.8 2.3 0 1.5.7 2.3 1.8 2.3 1.2 0 1.8-.9 1.8-2.3zm2.8 1.4c0-1.2.9-1.9 2.5-2l1.8-.1v-.6c0-.7-.5-1.1-1.4-1.1-.7 0-1.3.3-1.4.8h-1.3c.1-1.2 1.2-1.9 2.8-1.9 1.7 0 2.6.8 2.6 2.3V22H104v-.9h-.1c-.4.7-1.1 1.1-2 1.1-1.3 0-2.3-.8-2.3-2.1zm4.3-.5V19l-1.6.1c-.9.1-1.4.4-1.4 1s.5 1 1.3 1c1-.1 1.7-.7 1.7-1.5zm3.1-.9c0-2.1 1.1-3.5 2.8-3.5.9 0 1.7.4 2.1 1.2h.1v-3.7h1.3V22H112v-1h-.1c-.4.7-1.2 1.2-2.1 1.2-1.7 0-2.8-1.4-2.8-3.5zm1.4 0c0 1.4.7 2.3 1.8 2.3s1.8-.9 1.8-2.3-.7-2.3-1.8-2.3-1.8.8-1.8 2.3zm10.4 0c0-2.2 1.2-3.5 3.2-3.5s3.2 1.3 3.2 3.5-1.2 3.5-3.2 3.5c-1.9 0-3.2-1.3-3.2-3.5zm5 0c0-1.5-.7-2.3-1.8-2.3-1.2 0-1.8.9-1.8 2.3 0 1.5.7 2.3 1.8 2.3 1.2 0 1.8-.9 1.8-2.3zm3.2-3.4h1.3v1.1h.1c.3-.8 1-1.2 2-1.2 1.5 0 2.3.9 2.3 2.5V22h-1.3v-4c0-1.1-.5-1.6-1.5-1.6s-1.6.7-1.6 1.7v4H127v-6.8zm13.3-1.7v1.7h1.5v1.1h-1.5v3.5c0 .7.3 1 1 1h.5V22c-.2 0-.5.1-.7.1-1.5 0-2.1-.5-2.1-1.8v-3.8h-1.1v-1.1h1.1v-1.7h1.3zm3.3-.9h1.3v3.7h.1c.3-.8 1-1.2 2.1-1.2 1.4 0 2.3.9 2.3 2.5V22H148v-4c0-1.1-.5-1.6-1.4-1.6-1.1 0-1.7.7-1.7 1.7V22h-1.3v-9.3zm13.5 7.5c-.3 1.2-1.4 2-2.9 2-1.9 0-3.1-1.3-3.1-3.5s1.2-3.5 3.1-3.5c1.9 0 3 1.3 3 3.4v.4h-4.8v.1c0 1.2.7 1.9 1.8 1.9.8 0 1.4-.3 1.6-.8h1.3zm-4.6-2.2h3.4c0-1.1-.7-1.7-1.7-1.7s-1.7.7-1.7 1.7z"
          id="XMLID_1_"/>
</svg>