<svg version="1.1" id="Ebene_1" xmlns="http://www.w3.org/2000/svg" x="0" y="0" viewBox="0 0 346 120" xml:space="preserve" enable-background="new 0 0 346 120"><style>.st1{fill:#fff}</style><g id="Group-8"><defs><filter id="Adobe_OpacityMaskFilter" filterUnits="userSpaceOnUse" x="0" y="0" width="346" height="120"><feColorMatrix values="1 0 0 0 0 0 1 0 0 0 0 0 1 0 0 0 0 0 1 0"/></filter></defs><mask maskUnits="userSpaceOnUse" x="0" y="0" width="346" height="120" id="mask-2_2_"><g filter="url(#Adobe_OpacityMaskFilter)"><path id="path-1_2_" class="st1" d="M0 0h346v120H0V0z"/></g></mask><path id="Fill-5" d="M49.5 0L0 120h296.6L346 0H49.5z" mask="url(#mask-2_2_)" fill="#173b7a"/><defs><filter id="Adobe_OpacityMaskFilter_1_" filterUnits="userSpaceOnUse" x="45.4" y="21.2" width="249.2" height="76.7"><feColorMatrix values="1 0 0 0 0 0 1 0 0 0 0 0 1 0 0 0 0 0 1 0"/></filter></defs><mask maskUnits="userSpaceOnUse" x="45.4" y="21.2" width="249.2" height="76.7" id="Fill-7_1_"><g filter="url(#Adobe_OpacityMaskFilter_1_)"><path class="st1" d="M0 0h346v120H0V0z"/></g></mask><path id="Fill-7" d="M293.4 44.7c6.5-20.1-15.8-23.5-34.6-23.5-26.5 0-45.3 6-53.1 25.2-.9 2.2-1.4 4.2-1.6 6h-23.4L192.4 24H181l-11.6 28.4h-49.1L166.8 24h-37.4L91.9 48.8 102 24H74.4l-29 70.9H73l7.5-18.3 14-8.5 9.1 26.8h34.2l-13.5-32.5h41.1L152 94.9h11.3l13.3-32.5h32.5c3 1.8 7.4 3.1 13 3.8l23.4 3c6.5.8 8.8 1.8 7.3 5.6-2.1 5.1-9 6.3-15.2 6.3-6 0-9.5-.8-11.4-2.2-1.9-1.3-2.2-3.4-1.5-6h-32.1c-8 21.4 17.1 25 36.6 25 29.3 0 48.4-7.8 55.1-24.6 5.6-13.9-1.4-19.7-19.6-21.8l-22.8-2.6c-6.7-.8-7.8-2.7-6.9-5 1.9-4.8 7.4-6.7 15.3-6.7 3.5 0 7 .4 9.3 1.6 2.3 1 3.5 3 2.5 6h31.3v-.1z" mask="url(#Fill-7_1_)" fill="#fefefe"/></g></svg>