<svg xmlns="http://www.w3.org/2000/svg" viewBox="0 0 202.5 60"><path d="M195 59.8H8.2c-4.1 0-7.5-3.4-7.5-7.5V7.5C.7 3.4 4 0 8.2 0H195c4.1 0 7.5 3.4 7.5 7.5v44.8c0 4.1-3.4 7.5-7.5 7.5z"/><path d="M195 1.2c3.5 0 6.3 2.8 6.3 6.3v44.8c0 3.5-2.8 6.3-6.3 6.3H8.2c-3.5 0-6.3-2.8-6.3-6.3V7.5c0-3.5 2.8-6.3 6.3-6.3H195m0-1.2H8.2C4 0 .7 3.4.7 7.5v44.8c0 4.1 3.4 7.5 7.5 7.5H195c4.1 0 7.5-3.4 7.5-7.5V7.5c0-4.1-3.4-7.5-7.5-7.5z" fill="#a6a6a6"/><path d="M71.6 15.3c0 1.3-.4 2.3-1.1 3-.8.9-1.9 1.3-3.3 1.3-1.3 0-2.4-.4-3.3-1.3-.9-.9-1.4-2-1.4-3.3 0-1.3.5-2.4 1.4-3.3.9-.9 2-1.3 3.3-1.3.6 0 1.3.1 1.8.4.6.3 1.1.6 1.4 1l-.8.8c-.6-.7-1.4-1.1-2.5-1.1-.9 0-1.8.3-2.4 1-.7.7-1 1.5-1 2.6s.3 1.9 1 2.6c.7.7 1.5 1 2.4 1 1 0 1.8-.3 2.5-1 .4-.4.7-1 .8-1.8h-3.3v-1.1h4.3c.2.1.2.3.2.5zm6.9-3.7h-4.1v2.8h3.7v1.1h-3.7v2.8h4.1v1.1h-5.2v-9h5.2v1.2zm4.8 7.8h-1.2v-7.9h-2.5v-1.1h6.2v1.1h-2.5v7.9zm7 0v-9h1.2v9h-1.2zm6.3 0h-1.2v-7.9h-2.5v-1.1h6.2v1.1h-2.5v7.9zm14.1-1.1c-.9.9-2 1.4-3.3 1.4-1.3 0-2.4-.5-3.3-1.4-.9-.9-1.3-2-1.3-3.3s.4-2.4 1.3-3.3c.9-.9 2-1.4 3.3-1.4 1.3 0 2.4.5 3.3 1.4.9.9 1.3 2 1.3 3.3 0 1.3-.4 2.4-1.3 3.3zm-5.7-.8c.7.7 1.5 1 2.4 1 1 0 1.8-.3 2.4-1 .7-.7 1-1.5 1-2.6s-.3-1.9-1-2.6c-.7-.7-1.5-1-2.4-1-1 0-1.8.3-2.4 1-.7.7-1 1.5-1 2.6s.3 2 1 2.6zm8.7 1.9v-9h1.4l4.4 7v-6.9h1.2v9h-1.2l-4.6-7.3v7.3h-1.2z" style="fill:#fff;stroke:#fff;stroke-width:.2;stroke-miterlimit:10"/><path d="M102.5 32.5c-3.5 0-6.4 2.7-6.4 6.4s2.9 6.4 6.4 6.4c3.5 0 6.4-2.7 6.4-6.4s-2.8-6.4-6.4-6.4zm0 10.2c-1.9 0-3.6-1.6-3.6-3.9s1.7-3.9 3.6-3.9 3.6 1.6 3.6 3.9-1.6 3.9-3.6 3.9zM88.6 32.5c-3.5 0-6.4 2.7-6.4 6.4s2.9 6.4 6.4 6.4c3.5 0 6.4-2.7 6.4-6.4s-2.9-6.4-6.4-6.4zm0 10.2c-1.9 0-3.6-1.6-3.6-3.9s1.7-3.9 3.6-3.9c1.9 0 3.6 1.6 3.6 3.9s-1.7 3.9-3.6 3.9zm-16.5-8.2v2.7h6.5c-.2 1.5-.7 2.6-1.5 3.4-.9.9-2.4 2-5 2-4 0-7.1-3.2-7.1-7.2s3.1-7.2 7.1-7.2c2.1 0 3.7.8 4.9 1.9l1.9-1.9c-1.6-1.5-3.8-2.7-6.8-2.7-5.4 0-10 4.4-10 9.9 0 5.4 4.6 9.9 10 9.9 2.9 0 5.2-1 6.9-2.8 1.8-1.8 2.3-4.3 2.3-6.3 0-.6 0-1.2-.1-1.7h-9.1zm67.7 2.1c-.5-1.4-2.1-4-5.4-4-3.3 0-6 2.6-6 6.4 0 3.6 2.7 6.4 6.3 6.4 2.9 0 4.6-1.8 5.3-2.8l-2.2-1.4c-.7 1.1-1.7 1.8-3.1 1.8-1.4 0-2.4-.7-3.1-1.9l8.5-3.5-.3-1zm-8.7 2.1c-.1-2.5 1.9-3.7 3.3-3.7 1.1 0 2 .6 2.4 1.3l-5.7 2.4zm-6.9 6.1h2.8V26.2h-2.8v18.6zm-4.6-10.9c-.7-.7-1.9-1.4-3.4-1.4-3.2 0-6.1 2.8-6.1 6.4 0 3.6 2.9 6.3 6.1 6.3 1.5 0 2.7-.7 3.3-1.4h.1v.9c0 2.4-1.3 3.7-3.4 3.7-1.7 0-2.8-1.2-3.2-2.3l-2.4 1c.7 1.7 2.6 3.8 5.6 3.8 3.3 0 6-1.9 6-6.6V32.9h-2.6v1zm-3.2 8.8c-1.9 0-3.5-1.6-3.5-3.8 0-2.2 1.6-3.9 3.5-3.9s3.4 1.6 3.4 3.9c0 2.2-1.5 3.8-3.4 3.8zm36.5-16.5h-6.7v18.7h2.8v-7.1h3.9c3.1 0 6.1-2.2 6.1-5.8s-3-5.8-6.1-5.8zm0 9h-4v-6.4h4c2.1 0 3.3 1.7 3.3 3.2 0 1.4-1.2 3.2-3.3 3.2zm17.3-2.7c-2 0-4.1.9-5 2.9l2.5 1c.5-1 1.5-1.4 2.5-1.4 1.4 0 2.9.9 2.9 2.4v.2c-.5-.3-1.6-.7-2.9-.7-2.7 0-5.4 1.5-5.4 4.2 0 2.5 2.2 4.1 4.6 4.1 1.9 0 2.9-.8 3.6-1.8h.1v1.4h2.7v-7.2c.1-3.3-2.4-5.1-5.6-5.1zm-.3 10.2c-.9 0-2.2-.5-2.2-1.6 0-1.4 1.6-2 3-2 1.2 0 1.8.3 2.5.6-.2 1.8-1.7 3-3.3 3zm15.8-9.8-3.2 8.1h-.1l-3.3-8.1h-3l5 11.3-2.8 6.3h2.9l7.7-17.6h-3.2zm-25.2 11.9h2.8V26.2h-2.8v18.6z" fill="#fff"/><linearGradient id="a" gradientUnits="userSpaceOnUse" x1="33.275" y1="49.137" x2="8.187" y2="24.049" gradientTransform="matrix(1 0 0 -1 0 62.157)"><stop offset="0" stop-color="#00a0ff"/><stop offset=".007" stop-color="#00a1ff"/><stop offset=".26" stop-color="#00beff"/><stop offset=".512" stop-color="#00d2ff"/><stop offset=".76" stop-color="#00dfff"/><stop offset="1" stop-color="#00e3ff"/></linearGradient><path d="M16.3 11.3c-.4.5-.7 1.2-.7 2.1v33.1c0 .9.3 1.6.7 2.1l.1.1 18.5-18.5v-.4L16.4 11.2l-.1.1z" fill="url(#a)"/><linearGradient id="b" gradientUnits="userSpaceOnUse" x1="51.266" y1="32.257" x2="15.093" y2="32.257" gradientTransform="matrix(1 0 0 -1 0 62.157)"><stop offset="0" stop-color="#ffe000"/><stop offset=".409" stop-color="#ffbd00"/><stop offset=".775" stop-color="orange"/><stop offset="1" stop-color="#ff9c00"/></linearGradient><path d="m41.1 36.3-6.2-6.2v-.4l6.2-6.2.1.1 7.3 4.2c2.1 1.2 2.1 3.1 0 4.3l-7.3 4.2h-.1z" fill="url(#b)"/><linearGradient id="c" gradientUnits="userSpaceOnUse" x1="37.8" y1="28.826" x2="3.779" y2="-5.195" gradientTransform="matrix(1 0 0 -1 0 62.157)"><stop offset="0" stop-color="#ff3a44"/><stop offset="1" stop-color="#c31162"/></linearGradient><path d="m41.2 36.2-6.3-6.3-18.6 18.6c.7.7 1.8.8 3.1.1l21.8-12.4" fill="url(#c)"/><linearGradient id="d" gradientUnits="userSpaceOnUse" x1="11.595" y1="61.894" x2="26.787" y2="46.702" gradientTransform="matrix(1 0 0 -1 0 62.157)"><stop offset="0" stop-color="#32a071"/><stop offset=".069" stop-color="#2da771"/><stop offset=".476" stop-color="#15cf74"/><stop offset=".801" stop-color="#06e775"/><stop offset="1" stop-color="#00f076"/></linearGradient><path d="M41.2 23.6 19.4 11.2c-1.3-.7-2.4-.6-3.1.1l18.6 18.6 6.3-6.3z" fill="url(#d)"/><path d="M41.1 36.1 19.4 48.4c-1.2.7-2.3.6-3 0l-.1.1.1.1c.7.6 1.8.7 3 0l21.8-12.4-.1-.1z" opacity=".2"/><path d="M16.3 48.3c-.4-.5-.7-1.2-.7-2.1v.2c0 .9.3 1.6.7 2.1l.1-.1-.1-.1zm32.2-16.5L41 36l.1.1 7.3-4.2c1-.6 1.6-1.4 1.6-2.2 0 .9-.5 1.6-1.5 2.1z" style="opacity:.12;enable-background:new"/><path d="M19.4 11.4 48.5 28c.9.5 1.5 1.2 1.6 1.9 0-.8-.5-1.6-1.6-2.2L19.4 11.2c-2.1-1.2-3.8-.2-3.8 2.2v.2c0-2.4 1.7-3.4 3.8-2.2z" opacity=".25" fill="#fff"/></svg>