<?xml version="1.0" encoding="UTF-8"?>
<svg xmlns="http://www.w3.org/2000/svg" viewBox="0 0 569.29 117.41">
  <defs>
    <style>
      .cls-1 {
        fill: #fff;
      }

      .cls-1, .cls-2 {
        stroke-width: 0px;
      }

      .cls-2 {
        fill: #003a78;
      }
    </style>
  </defs>
  <g id="Papilotte">
    <path class="cls-2" d="m60.08,0h509.22v57.34c0,33.16-26.92,60.08-60.08,60.08H0v-57.34C0,26.92,26.92,0,60.08,0Z" transform="translate(569.29 117.41) rotate(-180)"/>
  </g>
  <g id="Name">
    <g>
      <path class="cls-1" d="m121.49,63.87h-.16v22.65h-18.56V29.65h18.48v20.97h.16l15.18-20.97h22.49l-21.37,26.03,22.41,30.85h-23.46l-15.18-22.65Z"/>
      <path class="cls-1" d="m178.93,29.65h20.32l22.17,56.88h-20.81l-2.97-8.35h-18.08l-2.81,8.35h-20.24l22.41-56.88Zm9.88,19.84l-4.66,14.06h9.24l-4.58-14.06Z"/>
      <path class="cls-1" d="m225.44,29.65h19.28v40.41h18.88v16.47h-38.16V29.65Z"/>
      <path class="cls-1" d="m269.55,29.65h19.28v56.88h-19.28V29.65Z"/>
      <path class="cls-1" d="m329.31,40.17c-1.12-1.55-2.65-2.82-4.58-3.82-1.93-.99-4.1-1.49-6.51-1.49-1.29,0-2.58.17-3.9.52-1.31.35-2.5.91-3.58,1.69-1.07.78-1.94,1.74-2.61,2.89-.67,1.15-1,2.53-1,4.14s.31,2.85.92,3.9c.62,1.04,1.45,1.93,2.49,2.65,1.04.72,2.28,1.34,3.7,1.85,1.42.51,2.93,1.03,4.54,1.57,1.93.59,3.88,1.26,5.86,2.01,1.98.75,3.78,1.74,5.38,2.97,1.61,1.23,2.92,2.77,3.94,4.62,1.02,1.85,1.53,4.19,1.53,7.03s-.55,5.5-1.65,7.67-2.56,3.96-4.38,5.38c-1.82,1.42-3.92,2.48-6.31,3.17-2.38.7-4.83,1.04-7.35,1.04-3.59,0-7.06-.7-10.4-2.09-3.35-1.39-6.12-3.45-8.31-6.19l6.19-5.22c1.34,1.98,3.13,3.59,5.38,4.82,2.25,1.23,4.69,1.85,7.31,1.85,1.34,0,2.68-.19,4.02-.56,1.34-.37,2.56-.96,3.66-1.77,1.1-.8,1.99-1.81,2.69-3.01.7-1.21,1.04-2.66,1.04-4.38s-.36-3.15-1.08-4.3c-.72-1.15-1.7-2.13-2.93-2.93-1.23-.8-2.67-1.49-4.3-2.05-1.63-.56-3.36-1.14-5.18-1.73-1.82-.53-3.61-1.19-5.38-1.97-1.77-.78-3.35-1.77-4.74-2.97s-2.52-2.69-3.37-4.46c-.86-1.77-1.29-3.96-1.29-6.59,0-2.84.58-5.27,1.73-7.31,1.15-2.04,2.65-3.72,4.5-5.06,1.85-1.34,3.94-2.32,6.27-2.93,2.33-.62,4.67-.92,7.03-.92,3.32,0,6.43.59,9.32,1.77,2.89,1.18,5.22,2.76,6.99,4.74l-5.62,5.46Z"/>
      <path class="cls-1" d="m404.1,58c0,4.39-.76,8.42-2.29,12.09-1.53,3.67-3.63,6.83-6.31,9.48-2.68,2.65-5.86,4.71-9.56,6.19s-7.71,2.21-12.05,2.21-8.34-.74-12.01-2.21c-3.67-1.47-6.84-3.53-9.52-6.19-2.68-2.65-4.77-5.81-6.27-9.48-1.5-3.67-2.25-7.7-2.25-12.09s.75-8.5,2.25-12.17c1.5-3.67,3.59-6.8,6.27-9.4,2.68-2.6,5.85-4.62,9.52-6.06,3.67-1.45,7.67-2.17,12.01-2.17s8.35.72,12.05,2.17c3.7,1.45,6.88,3.47,9.56,6.06,2.68,2.6,4.78,5.73,6.31,9.4,1.53,3.67,2.29,7.73,2.29,12.17Zm-8.6,0c0-3.1-.51-6.04-1.53-8.8-1.02-2.76-2.46-5.18-4.34-7.27-1.88-2.09-4.14-3.74-6.79-4.94s-5.64-1.81-8.96-1.81-6.23.6-8.88,1.81-4.9,2.85-6.75,4.94-3.28,4.51-4.3,7.27c-1.02,2.76-1.53,5.69-1.53,8.8s.51,6.13,1.53,8.92c1.02,2.79,2.46,5.21,4.34,7.27,1.87,2.06,4.12,3.68,6.75,4.86,2.62,1.18,5.57,1.77,8.84,1.77s6.24-.59,8.92-1.77c2.68-1.18,4.95-2.8,6.83-4.86,1.87-2.06,3.32-4.48,4.34-7.27,1.02-2.78,1.53-5.76,1.53-8.92Z"/>
      <path class="cls-1" d="m414.95,29.65h17.35c3.05,0,5.84.31,8.35.92,2.52.62,4.66,1.57,6.43,2.85,1.77,1.29,3.13,2.92,4.1,4.9.96,1.98,1.45,4.37,1.45,7.15s-.52,5.28-1.57,7.31c-1.04,2.04-2.49,3.7-4.34,4.98s-4.04,2.24-6.59,2.85c-2.54.62-5.29.92-8.23.92h-9v24.98h-7.95V29.65Zm7.95,25.14h8.44c1.93,0,3.71-.17,5.34-.52,1.63-.35,3.04-.88,4.22-1.61,1.18-.72,2.09-1.67,2.73-2.85.64-1.18.96-2.62.96-4.34s-.33-3.15-1-4.3c-.67-1.15-1.58-2.09-2.73-2.81-1.15-.72-2.53-1.23-4.14-1.53-1.61-.29-3.35-.44-5.22-.44h-8.6v18.4Z"/>
      <path class="cls-1" d="m459.44,40.87c0-1.57.3-3.04.9-4.43.6-1.38,1.42-2.58,2.45-3.6,1.03-1.02,2.24-1.83,3.62-2.43,1.38-.6,2.86-.9,4.42-.9s3.04.3,4.42.9c1.38.6,2.59,1.41,3.62,2.43,1.03,1.02,1.85,2.22,2.45,3.6.6,1.38.9,2.86.9,4.43s-.3,3.03-.9,4.4c-.6,1.37-1.42,2.56-2.45,3.58-1.03,1.02-2.24,1.82-3.62,2.4-1.38.58-2.86.88-4.42.88s-3.04-.29-4.42-.88c-1.38-.58-2.59-1.38-3.62-2.4-1.03-1.02-1.85-2.21-2.45-3.58-.6-1.37-.9-2.83-.9-4.4Zm1.8,0c0,1.3.25,2.53.75,3.7.5,1.17,1.18,2.19,2.05,3.08.87.88,1.88,1.58,3.05,2.08,1.17.5,2.42.75,3.75.75s2.58-.25,3.75-.75c1.17-.5,2.18-1.19,3.05-2.08.87-.88,1.55-1.91,2.05-3.08.5-1.17.75-2.4.75-3.7s-.25-2.58-.75-3.75c-.5-1.17-1.18-2.18-2.05-3.05-.87-.87-1.88-1.55-3.05-2.05-1.17-.5-2.42-.75-3.75-.75s-2.58.25-3.75.75c-1.17.5-2.18,1.18-3.05,2.05s-1.55,1.88-2.05,3.05c-.5,1.17-.75,2.42-.75,3.75Zm12.35,6.25l-2.75-4.95h-1.8v4.95h-3.05v-12.8h5.5c.6,0,1.18.07,1.75.2.57.13,1.08.35,1.55.65.47.3.84.71,1.12,1.23.28.52.42,1.16.42,1.92,0,.87-.24,1.58-.72,2.15-.48.57-1.09.98-1.83,1.25l3.4,5.4h-3.6Zm-2.2-7.15c.47,0,.89-.15,1.28-.45.38-.3.58-.7.58-1.2,0-.53-.22-.92-.65-1.15-.43-.23-.83-.35-1.2-.35h-2.35v3.15h2.35Z"/>
    </g>
  </g>
</svg>