<?xml version="1.0" encoding="UTF-8"?>
<svg id="solu" xmlns="http://www.w3.org/2000/svg" viewBox="0 0 569.29 117.41">
  <defs>
    <style>
      .cls-1 {
        fill: #9a1915;
      }

      .cls-1, .cls-2 {
        stroke-width: 0px;
      }

      .cls-2 {
        fill: #fff;
      }
    </style>
  </defs>
  <path class="cls-1" d="m60.08,0h509.22v57.34c0,33.16-26.92,60.08-60.08,60.08H0v-57.34C0,26.92,26.92,0,60.08,0Z" transform="translate(569.29 117.41) rotate(-180)"/>
  <g>
    <path class="cls-2" d="m117.9,64.81h-.15v21.71h-17.79v-54.52h17.71v20.1h.15l14.55-20.1h21.56l-20.48,24.95,21.48,29.57h-22.48l-14.55-21.71Z"/>
    <path class="cls-2" d="m172.96,32.01h19.48l21.25,54.52h-19.94l-2.85-8.01h-17.33l-2.7,8.01h-19.4l21.48-54.52Zm9.47,19.02l-4.47,13.47h8.86l-4.39-13.47Z"/>
    <path class="cls-2" d="m217.54,32.01h18.48v38.73h18.1v15.79h-36.58v-54.52Z"/>
    <path class="cls-2" d="m259.81,32.01h18.48v54.52h-18.48v-54.52Z"/>
    <path class="cls-2" d="m318.18,73.9h.15l16.09-41.89h11.86v54.52h-7.62v-45.58h-.15l-18.09,45.58h-4.85l-18.02-45.58h-.15v45.58h-7.39v-54.52h11.86l16.32,41.89Z"/>
    <path class="cls-2" d="m414.51,59.19c0,4.21-.73,8.07-2.19,11.59-1.46,3.52-3.48,6.54-6.04,9.09-2.57,2.54-5.62,4.52-9.16,5.93s-7.39,2.12-11.55,2.12-8-.71-11.51-2.12c-3.52-1.41-6.56-3.39-9.12-5.93-2.57-2.54-4.57-5.57-6.01-9.09-1.44-3.52-2.16-7.38-2.16-11.59s.72-8.15,2.16-11.67c1.44-3.52,3.44-6.52,6.01-9.01,2.57-2.49,5.61-4.43,9.12-5.81,3.52-1.39,7.35-2.08,11.51-2.08s8.01.69,11.55,2.08c3.54,1.39,6.6,3.32,9.16,5.81,2.57,2.49,4.58,5.49,6.04,9.01,1.46,3.52,2.19,7.41,2.19,11.67Zm-8.24,0c0-2.98-.49-5.79-1.46-8.43-.98-2.64-2.36-4.97-4.16-6.97-1.8-2-3.97-3.58-6.51-4.74s-5.4-1.73-8.58-1.73-5.97.58-8.51,1.73-4.7,2.73-6.47,4.74c-1.77,2-3.15,4.33-4.12,6.97-.98,2.64-1.46,5.46-1.46,8.43s.49,5.88,1.46,8.55c.97,2.67,2.36,4.99,4.16,6.97,1.8,1.98,3.95,3.53,6.47,4.66,2.51,1.13,5.34,1.69,8.47,1.69s5.98-.56,8.55-1.69c2.57-1.13,4.75-2.68,6.54-4.66,1.8-1.98,3.18-4.3,4.16-6.97.97-2.67,1.46-5.52,1.46-8.55Z"/>
    <path class="cls-2" d="m424.9,32.01h16.63c2.93,0,5.59.3,8.01.89,2.41.59,4.47,1.5,6.16,2.73,1.69,1.23,3,2.8,3.93,4.7.92,1.9,1.39,4.18,1.39,6.85s-.5,5.06-1.5,7.01c-1,1.95-2.39,3.54-4.16,4.77-1.77,1.23-3.88,2.14-6.31,2.73-2.44.59-5.07.89-7.89.89h-8.62v23.95h-7.62v-54.52Zm7.62,24.1h8.08c1.85,0,3.55-.17,5.12-.5,1.57-.33,2.91-.85,4.04-1.54,1.13-.69,2-1.6,2.62-2.73.62-1.13.92-2.52.92-4.16s-.32-3.02-.96-4.12c-.64-1.1-1.51-2-2.62-2.7-1.1-.69-2.42-1.18-3.96-1.46s-3.21-.42-5-.42h-8.24v17.63Z"/>
    <path class="cls-2" d="m467.69,40.88c0-1.57.3-3.04.9-4.43.6-1.38,1.42-2.58,2.45-3.6,1.03-1.02,2.24-1.83,3.62-2.43,1.38-.6,2.86-.9,4.42-.9s3.04.3,4.42.9c1.38.6,2.59,1.41,3.62,2.43,1.03,1.02,1.85,2.22,2.45,3.6.6,1.38.9,2.86.9,4.43s-.3,3.03-.9,4.4c-.6,1.37-1.42,2.56-2.45,3.58-1.03,1.02-2.24,1.82-3.62,2.4-1.38.58-2.86.88-4.42.88s-3.04-.29-4.42-.88c-1.38-.58-2.59-1.38-3.62-2.4-1.03-1.02-1.85-2.21-2.45-3.58-.6-1.37-.9-2.83-.9-4.4Zm1.8,0c0,1.3.25,2.53.75,3.7.5,1.17,1.18,2.19,2.05,3.08.87.88,1.88,1.58,3.05,2.08,1.17.5,2.42.75,3.75.75s2.58-.25,3.75-.75c1.17-.5,2.18-1.19,3.05-2.08.87-.88,1.55-1.91,2.05-3.08.5-1.17.75-2.4.75-3.7s-.25-2.58-.75-3.75c-.5-1.17-1.18-2.18-2.05-3.05-.87-.87-1.88-1.55-3.05-2.05-1.17-.5-2.42-.75-3.75-.75s-2.58.25-3.75.75c-1.17.5-2.18,1.18-3.05,2.05s-1.55,1.88-2.05,3.05c-.5,1.17-.75,2.42-.75,3.75Zm12.35,6.25l-2.75-4.95h-1.8v4.95h-3.05v-12.8h5.5c.6,0,1.18.07,1.75.2.57.13,1.08.35,1.55.65.47.3.84.71,1.12,1.23.28.52.42,1.16.42,1.92,0,.87-.24,1.58-.72,2.15-.48.57-1.09.98-1.83,1.25l3.4,5.4h-3.6Zm-2.2-7.15c.47,0,.89-.15,1.28-.45.38-.3.58-.7.58-1.2,0-.53-.22-.92-.65-1.15-.43-.23-.83-.35-1.2-.35h-2.35v3.15h2.35Z"/>
  </g>
</svg>